<svg width="32" height="31" viewBox="0 0 32 31" fill="none" xmlns="http://www.w3.org/2000/svg">
<path d="M15.5245 1.08156C15.6741 0.620905 16.3259 0.6209 16.4755 1.08156L19.5657 10.5922C19.7665 11.2102 20.3425 11.6287 20.9923 11.6287H30.9924C31.4768 11.6287 31.6781 12.2485 31.2863 12.5332L23.196 18.4111C22.6703 18.7931 22.4503 19.4701 22.6511 20.0881L25.7413 29.5988C25.891 30.0594 25.3638 30.4425 24.9719 30.1578L16.8817 24.2799C16.3559 23.8979 15.6441 23.8979 15.1183 24.2799L7.02808 30.1578C6.63623 30.4425 6.10899 30.0594 6.25866 29.5988L9.34886 20.0881C9.54967 19.4701 9.32968 18.7931 8.80395 18.4111L0.713714 12.5332C0.321861 12.2485 0.523243 11.6287 1.00761 11.6287H11.0077C11.6575 11.6287 12.2335 11.2102 12.4343 10.5922L15.5245 1.08156Z" fill="#EDB021" stroke="black"/>
</svg>
